{
  "accessors": [
    {
      "bufferView": 2,
      "componentType": 5126,
      "count": 2096,
      "max": [
        1.6841756105422974,
        2.4410884380340576,
        -6.993693828582764
      ],
      "min": [
        -1.6841756105422974,
        0.9658331871032715,
        -8.488759994506836
      ],
      "type": "VEC3"
    },
    {
      "bufferView": 2,
      "byteOffset": 25152,
      "componentType": 5126,
      "count": 2096,
      "max": [
        0.9969073534011841,
        0.9983547329902649,
        0.9993780851364136
      ],
      "min": [
        -0.9969072937965393,
        -0.996395468711853,
        -0.9997409582138062
      ],
      "type": "VEC3"
    },
    {
      "bufferView": 3,
      "componentType": 5126,
      "count": 2096,
      "max": [
        0.9999774098396301,
        0.9988304376602173,
        0.9991928339004517,
        1.0
      ],
      "min": [
        -0.9932901263237,
        -0.9986350536346436,
        -0.9991930723190308,
        1.0
      ],
      "type": "VEC4"
    },
    {
      "bufferView": 1,
      "componentType": 5126,
      "count": 2096,
      "max": [
        0.9119026064872742,
        0.9991596937179565
      ],
      "min": [
        0.005442867986857891,
        0.0052290852181613445
      ],
      "type": "VEC2"
    },
    {
      "bufferView": 0,
      "componentType": 5125,
      "count": 10044,
      "type": "SCALAR"
    },
    {
      "bufferView": 2,
      "byteOffset": 50304,
      "componentType": 5126,
      "count": 9031,
      "max": [
        0.10336843132972717,
        0.19000472128391266,
        0.05567144602537155
      ],
      "min": [
        -0.10336843132972717,
        0.0045218393206596375,
        -0.044430848211050034
      ],
      "type": "VEC3"
    },
    {
      "bufferView": 2,
      "byteOffset": 158676,
      "componentType": 5126,
      "count": 9031,
      "max": [
        0.9999993443489075,
        0.999968945980072,
        0.9996891617774963
      ],
      "min": [
        -0.9999993443489075,
        -0.9999229907989502,
        -0.9999976754188538
      ],
      "type": "VEC3"
    },
    {
      "bufferView": 3,
      "byteOffset": 33536,
      "componentType": 5126,
      "count": 9031,
      "max": [
        1.0,
        0.9993715286254883,
        0.9999732375144958,
        1.0
      ],
      "min": [
        -1.0,
        -0.9993714094161987,
        -0.9999412298202515,
        1.0
      ],
      "type": "VEC4"
    },
    {
      "bufferView": 1,
      "byteOffset": 16768,
      "componentType": 5126,
      "count": 9031,
      "max": [
        0.9991849660873413,
        0.9982690811157227
      ],
      "min": [
        0.002510356018319726,
        0.00151741411536932
      ],
      "type": "VEC2"
    },
    {
      "bufferView": 0,
      "byteOffset": 40176,
      "componentType": 5125,
      "count": 48924,
      "type": "SCALAR"
    }
  ],
  "asset": {
    "extras": {
      "author": "Didacticus (https://sketchfab.com/Didacticus)",
      "license": "CC-BY-SA-4.0 (http://creativecommons.org/licenses/by-sa/4.0/)",
      "source": "https://sketchfab.com/3d-models/troll-9ae88b3a2ed24850b6f14a2a9273728c",
      "title": "Troll"
    },
    "generator": "Sketchfab-14.70.0",
    "version": "2.0"
  },
  "bufferViews": [
    {
      "buffer": 0,
      "byteLength": 235872,
      "name": "floatBufferViews",
      "target": 34963
    },
    {
      "buffer": 0,
      "byteLength": 89016,
      "byteOffset": 235872,
      "byteStride": 8,
      "name": "floatBufferViews",
      "target": 34962
    },
    {
      "buffer": 0,
      "byteLength": 267048,
      "byteOffset": 324888,
      "byteStride": 12,
      "name": "floatBufferViews",
      "target": 34962
    },
    {
      "buffer": 0,
      "byteLength": 178032,
      "byteOffset": 591936,
      "byteStride": 16,
      "name": "floatBufferViews",
      "target": 34962
    }
  ],
  "buffers": [
    {
      "byteLength": 769968,
      "uri": "scene.bin"
    }
  ],
  "extensionsUsed": [
    "KHR_materials_specular"
  ],
  "images": [
    {
      "uri": "textures/ExtrasFinal_baseColor.png"
    },
    {
      "uri": "textures/ExtrasFinal_metallicRoughness.png"
    },
    {
      "uri": "textures/ExtrasFinal_normal.png"
    },
    {
      "uri": "textures/ExtrasFinal_specularf0.png"
    },
    {
      "uri": "textures/BodyFinal_baseColor.png"
    },
    {
      "uri": "textures/BodyFinal_metallicRoughness.png"
    },
    {
      "uri": "textures/BodyFinal_normal.png"
    }
  ],
  "materials": [
    {
      "doubleSided": true,
      "extensions": {
        "KHR_materials_specular": {
          "specularColorFactor": [
            1.0,
            1.0,
            1.0
          ],
          "specularFactor": 0.0,
          "specularTexture": {
            "index": 3
          }
        }
      },
      "name": "ExtrasFinal",
      "normalTexture": {
        "index": 2
      },
      "pbrMetallicRoughness": {
        "baseColorTexture": {
          "index": 0
        },
        "metallicRoughnessTexture": {
          "index": 1
        }
      }
    },
    {
      "doubleSided": true,
      "extensions": {
        "KHR_materials_specular": {
          "specularColorFactor": [
            1.0,
            1.0,
            1.0
          ],
          "specularFactor": 1.0
        }
      },
      "name": "BodyFinal",
      "normalTexture": {
        "index": 6,
        "scale": 0.8
      },
      "pbrMetallicRoughness": {
        "baseColorTexture": {
          "index": 4
        },
        "metallicRoughnessTexture": {
          "index": 5
        }
      }
    }
  ],
  "meshes": [
    {
      "name": "Object_0",
      "primitives": [
        {
          "attributes": {
            "NORMAL": 1,
            "POSITION": 0,
            "TANGENT": 2,
            "TEXCOORD_0": 3
          },
          "indices": 4,
          "material": 0,
          "mode": 4
        }
      ]
    },
    {
      "name": "Object_1",
      "primitives": [
        {
          "attributes": {
            "NORMAL": 6,
            "POSITION": 5,
            "TANGENT": 7,
            "TEXCOORD_0": 8
          },
          "indices": 9,
          "material": 1,
          "mode": 4
        }
      ]
    }
  ],
  "nodes": [
    {
      "children": [
        1
      ],
      "matrix": [
        1.0,
        0.0,
        0.0,
        0.0,
        0.0,
        2.220446049250313e-16,
        -1.0,
        0.0,
        0.0,
        1.0,
        2.220446049250313e-16,
        0.0,
        0.0,
        0.0,
        0.0,
        1.0
      ],
      "name": "Sketchfab_model"
    },
    {
      "children": [
        2
      ],
      "name": "root"
    },
    {
      "children": [
        3,
        5
      ],
      "matrix": [
        1.0,
        0.0,
        0.0,
        0.0,
        0.0,
        2.220446049250313e-16,
        1.0,
        0.0,
        0.0,
        -1.0,
        2.220446049250313e-16,
        0.0,
        0.0,
        0.0,
        0.0,
        1.0
      ],
      "name": "GLTF_SceneRootNode"
    },
    {
      "children": [
        4
      ],
      "matrix": [
        0.022628555074334145,
        0.0,
        0.0,
        0.0,
        0.0,
        -3.814889196302751e-09,
        0.022628555074333822,
        0.0,
        0.0,
        -0.022628555074333822,
        -3.814889196302751e-09,
        0.0,
        0.0,
        0.0,
        0.0,
        1.0
      ],
      "name": "Extras_low_0"
    },
    {
      "mesh": 0,
      "name": "Object_4"
    },
    {
      "children": [
        6
      ],
      "name": "Body_low_1"
    },
    {
      "mesh": 1,
      "name": "Object_6"
    }
  ],
  "samplers": [
    {
      "magFilter": 9729,
      "minFilter": 9987,
      "wrapS": 10497,
      "wrapT": 10497
    }
  ],
  "scene": 0,
  "scenes": [
    {
      "name": "Sketchfab_Scene",
      "nodes": [
        0
      ]
    }
  ],
  "textures": [
    {
      "sampler": 0,
      "source": 0
    },
    {
      "sampler": 0,
      "source": 1
    },
    {
      "sampler": 0,
      "source": 2
    },
    {
      "sampler": 0,
      "source": 3
    },
    {
      "sampler": 0,
      "source": 4
    },
    {
      "sampler": 0,
      "source": 5
    },
    {
      "sampler": 0,
      "source": 6
    }
  ]
}
