{
  "accessors": [
    {
      "bufferView": 1,
      "componentType": 5126,
      "count": 65532,
      "max": [
        75.65946197509766,
        177.73941040039063,
        91.7033920288086
      ],
      "min": [
        -88.49388885498047,
        -0.42718642950057983,
        -27.790285110473633
      ],
      "type": "VEC3"
    },
    {
      "bufferView": 1,
      "byteOffset": 786384,
      "componentType": 5126,
      "count": 65532,
      "max": [
        0.9998764395713806,
        0.9999299645423889,
        0.9999940395355225
      ],
      "min": [
        -0.9999915361404419,
        -0.9999628067016602,
        -0.9998745918273926
      ],
      "type": "VEC3"
    },
    {
      "bufferView": 2,
      "componentType": 5126,
      "count": 65532,
      "max": [
        0.6470588445663452,
        0.6470588445663452,
        0.6470588445663452,
        1.0
      ],
      "min": [
        0.0,
        0.0,
        0.0,
        1.0
      ],
      "type": "VEC4"
    },
    {
      "bufferView": 0,
      "componentType": 5125,
      "count": 314802,
      "type": "SCALAR"
    },
    {
      "bufferView": 1,
      "byteOffset": 1572768,
      "componentType": 5126,
      "count": 65532,
      "max": [
        81.24195098876953,
        200.48770141601563,
        85.3508071899414
      ],
      "min": [
        -88.65682220458984,
        0.13594591617584229,
        -27.80131721496582
      ],
      "type": "VEC3"
    },
    {
      "bufferView": 1,
      "byteOffset": 2359152,
      "componentType": 5126,
      "count": 65532,
      "max": [
        0.9999582767486572,
        0.9999883770942688,
        0.9999589920043945
      ],
      "min": [
        -0.9999929070472717,
        -1.0,
        -0.9999910593032837
      ],
      "type": "VEC3"
    },
    {
      "bufferView": 2,
      "byteOffset": 1048512,
      "componentType": 5126,
      "count": 65532,
      "max": [
        0.7176470756530762,
        0.615686297416687,
        0.38823530077934265,
        1.0
      ],
      "min": [
        0.1882352977991104,
        0.16078431904315948,
        0.12156862765550613,
        1.0
      ],
      "type": "VEC4"
    },
    {
      "bufferView": 0,
      "byteOffset": 1259208,
      "componentType": 5125,
      "count": 320463,
      "type": "SCALAR"
    },
    {
      "bufferView": 1,
      "byteOffset": 3145536,
      "componentType": 5126,
      "count": 65532,
      "max": [
        80.72962188720703,
        199.39312744140625,
        91.9873046875
      ],
      "min": [
        -88.65736389160156,
        -0.5905972719192505,
        -25.249366760253906
      ],
      "type": "VEC3"
    },
    {
      "bufferView": 1,
      "byteOffset": 3931920,
      "componentType": 5126,
      "count": 65532,
      "max": [
        0.9999985694885254,
        0.9999993443489075,
        0.9999825358390808
      ],
      "min": [
        -0.9999997019767761,
        -1.0,
        -0.9999510049819946
      ],
      "type": "VEC3"
    },
    {
      "bufferView": 2,
      "byteOffset": 2097024,
      "componentType": 5126,
      "count": 65532,
      "max": [
        0.7176470756530762,
        0.615686297416687,
        0.38823530077934265,
        1.0
      ],
      "min": [
        0.10588235408067703,
        0.10588235408067703,
        0.12156862765550613,
        1.0
      ],
      "type": "VEC4"
    },
    {
      "bufferView": 0,
      "byteOffset": 2541060,
      "componentType": 5125,
      "count": 315453,
      "type": "SCALAR"
    },
    {
      "bufferView": 1,
      "byteOffset": 4718304,
      "componentType": 5126,
      "count": 65532,
      "max": [
        79.87201690673828,
        199.6508331298828,
        92.17472076416016
      ],
      "min": [
        -87.37671661376953,
        -0.7924745082855225,
        -26.181997299194336
      ],
      "type": "VEC3"
    },
    {
      "bufferView": 1,
      "byteOffset": 5504688,
      "componentType": 5126,
      "count": 65532,
      "max": [
        0.9999790787696838,
        0.9999923706054688,
        0.9999723434448242
      ],
      "min": [
        -0.999916672706604,
        -0.9999935030937195,
        -0.9999995827674866
      ],
      "type": "VEC3"
    },
    {
      "bufferView": 2,
      "byteOffset": 3145536,
      "componentType": 5126,
      "count": 65532,
      "max": [
        0.7176470756530762,
        0.6470588445663452,
        0.6470588445663452,
        1.0
      ],
      "min": [
        0.10588235408067703,
        0.10196078568696976,
        0.10196078568696976,
        1.0
      ],
      "type": "VEC4"
    },
    {
      "bufferView": 0,
      "byteOffset": 3802872,
      "componentType": 5125,
      "count": 318843,
      "type": "SCALAR"
    },
    {
      "bufferView": 1,
      "byteOffset": 6291072,
      "componentType": 5126,
      "count": 65532,
      "max": [
        81.22050476074219,
        201.5718231201172,
        90.66468811035156
      ],
      "min": [
        -88.98090362548828,
        -0.8524864912033081,
        -25.842226028442383
      ],
      "type": "VEC3"
    },
    {
      "bufferView": 1,
      "byteOffset": 7077456,
      "componentType": 5126,
      "count": 65532,
      "max": [
        0.9999828338623047,
        0.9999997615814209,
        0.9999069571495056
      ],
      "min": [
        -0.9999929070472717,
        -1.0,
        -0.9999886751174927
      ],
      "type": "VEC3"
    },
    {
      "bufferView": 2,
      "byteOffset": 4194048,
      "componentType": 5126,
      "count": 65532,
      "max": [
        0.7176470756530762,
        0.615686297416687,
        0.38823530077934265,
        1.0
      ],
      "min": [
        0.10196078568696976,
        0.09803921729326248,
        0.09803921729326248,
        1.0
      ],
      "type": "VEC4"
    },
    {
      "bufferView": 0,
      "byteOffset": 5078244,
      "componentType": 5125,
      "count": 320277,
      "type": "SCALAR"
    },
    {
      "bufferView": 1,
      "byteOffset": 7863840,
      "componentType": 5126,
      "count": 65532,
      "max": [
        80.78135681152344,
        201.03335571289063,
        92.42149353027344
      ],
      "min": [
        -88.53530883789063,
        0.2773609161376953,
        -26.94923973083496
      ],
      "type": "VEC3"
    },
    {
      "bufferView": 1,
      "byteOffset": 8650224,
      "componentType": 5126,
      "count": 65532,
      "max": [
        0.9999980330467224,
        0.9999474883079529,
        0.99998539686203
      ],
      "min": [
        -0.9999939799308777,
        -0.9999983310699463,
        -0.9999995827674866
      ],
      "type": "VEC3"
    },
    {
      "bufferView": 2,
      "byteOffset": 5242560,
      "componentType": 5126,
      "count": 65532,
      "max": [
        0.7176470756530762,
        0.6470588445663452,
        0.6470588445663452,
        1.0
      ],
      "min": [
        0.0,
        0.0,
        0.0,
        1.0
      ],
      "type": "VEC4"
    },
    {
      "bufferView": 0,
      "byteOffset": 6359352,
      "componentType": 5125,
      "count": 318717,
      "type": "SCALAR"
    },
    {
      "bufferView": 1,
      "byteOffset": 9436608,
      "componentType": 5126,
      "count": 65532,
      "max": [
        81.24195098876953,
        200.435791015625,
        92.451416015625
      ],
      "min": [
        -88.98367309570313,
        -0.42718642950057983,
        -27.07735252380371
      ],
      "type": "VEC3"
    },
    {
      "bufferView": 1,
      "byteOffset": 10222992,
      "componentType": 5126,
      "count": 65532,
      "max": [
        0.999940812587738,
        0.9999997615814209,
        0.9997600317001343
      ],
      "min": [
        -0.9999901056289673,
        -1.0,
        -0.9999761581420898
      ],
      "type": "VEC3"
    },
    {
      "bufferView": 2,
      "byteOffset": 6291072,
      "componentType": 5126,
      "count": 65532,
      "max": [
        0.7176470756530762,
        0.6470588445663452,
        0.6470588445663452,
        1.0
      ],
      "min": [
        0.07450980693101883,
        0.07450980693101883,
        0.07450980693101883,
        1.0
      ],
      "type": "VEC4"
    },
    {
      "bufferView": 0,
      "byteOffset": 7634220,
      "componentType": 5125,
      "count": 299679,
      "type": "SCALAR"
    },
    {
      "bufferView": 1,
      "byteOffset": 11009376,
      "componentType": 5126,
      "count": 65532,
      "max": [
        81.19536590576172,
        201.0265655517578,
        91.92005157470703
      ],
      "min": [
        -88.53004455566406,
        -0.283904492855072,
        -27.790285110473633
      ],
      "type": "VEC3"
    },
    {
      "bufferView": 1,
      "byteOffset": 11795760,
      "componentType": 5126,
      "count": 65532,
      "max": [
        0.9999798536300659,
        0.9999635219573975,
        0.999977171421051
      ],
      "min": [
        -0.9999818801879883,
        -1.0,
        -0.9999879002571106
      ],
      "type": "VEC3"
    },
    {
      "bufferView": 2,
      "byteOffset": 7339584,
      "componentType": 5126,
      "count": 65532,
      "max": [
        0.7176470756530762,
        0.6470588445663452,
        0.6470588445663452,
        1.0
      ],
      "min": [
        0.10196078568696976,
        0.10196078568696976,
        0.10196078568696976,
        1.0
      ],
      "type": "VEC4"
    },
    {
      "bufferView": 0,
      "byteOffset": 8832936,
      "componentType": 5125,
      "count": 219519,
      "type": "SCALAR"
    },
    {
      "bufferView": 1,
      "byteOffset": 12582144,
      "componentType": 5126,
      "count": 47875,
      "max": [
        81.22050476074219,
        201.47450256347656,
        92.22682189941406
      ],
      "min": [
        -88.90373229980469,
        -0.4750303328037262,
        -27.76251220703125
      ],
      "type": "VEC3"
    },
    {
      "bufferView": 1,
      "byteOffset": 13156644,
      "componentType": 5126,
      "count": 47875,
      "max": [
        0.9999399781227112,
        0.9998999238014221,
        0.9999397993087769
      ],
      "min": [
        -0.9998956322669983,
        -1.0,
        -0.9999276399612427
      ],
      "type": "VEC3"
    },
    {
      "bufferView": 2,
      "byteOffset": 8388096,
      "componentType": 5126,
      "count": 47875,
      "max": [
        0.7176470756530762,
        0.6470588445663452,
        0.6470588445663452,
        1.0
      ],
      "min": [
        0.0,
        0.0,
        0.0,
        1.0
      ],
      "type": "VEC4"
    },
    {
      "bufferView": 0,
      "byteOffset": 9711012,
      "componentType": 5125,
      "count": 88341,
      "type": "SCALAR"
    }
  ],
  "asset": {
    "extras": {
      "author": "JoRCS (https://sketchfab.com/JoRCS)",
      "license": "CC-BY-4.0 (http://creativecommons.org/licenses/by/4.0/)",
      "source": "https://sketchfab.com/3d-models/enraged-green-troll-cartoon-printable-d8a5e568a9a2484da20794fa36f008ab",
      "title": "Enraged green troll -cartoon - Printable"
    },
    "generator": "Sketchfab-15.30.0",
    "version": "2.0"
  },
  "bufferViews": [
    {
      "buffer": 0,
      "byteLength": 10064376,
      "name": "floatBufferViews",
      "target": 34963
    },
    {
      "buffer": 0,
      "byteLength": 13731144,
      "byteOffset": 10064376,
      "byteStride": 12,
      "name": "floatBufferViews",
      "target": 34962
    },
    {
      "buffer": 0,
      "byteLength": 9154096,
      "byteOffset": 23795520,
      "byteStride": 16,
      "name": "floatBufferViews",
      "target": 34962
    }
  ],
  "buffers": [
    {
      "byteLength": 32949616,
      "uri": "scene.bin"
    }
  ],
  "extensionsUsed": [
    "KHR_materials_specular"
  ],
  "materials": [
    {
      "doubleSided": true,
      "extensions": {
        "KHR_materials_specular": {
          "specularColorFactor": [
            1.0,
            1.0,
            1.0
          ],
          "specularFactor": 0.5104777462178932
        }
      },
      "name": "troll_printable_mat",
      "pbrMetallicRoughness": {
        "baseColorFactor": [
          0.5,
          0.5,
          0.5,
          1.0
        ],
        "metallicFactor": 0.0,
        "roughnessFactor": 0.693335446355646
      }
    }
  ],
  "meshes": [
    {
      "name": "troll_printable_geo_troll_printable_mat_0",
      "primitives": [
        {
          "attributes": {
            "COLOR_0": 2,
            "NORMAL": 1,
            "POSITION": 0
          },
          "indices": 3,
          "material": 0,
          "mode": 4
        }
      ]
    },
    {
      "name": "troll_printable_geo_troll_printable_mat_0",
      "primitives": [
        {
          "attributes": {
            "COLOR_0": 6,
            "NORMAL": 5,
            "POSITION": 4
          },
          "indices": 7,
          "material": 0,
          "mode": 4
        }
      ]
    },
    {
      "name": "troll_printable_geo_troll_printable_mat_0",
      "primitives": [
        {
          "attributes": {
            "COLOR_0": 10,
            "NORMAL": 9,
            "POSITION": 8
          },
          "indices": 11,
          "material": 0,
          "mode": 4
        }
      ]
    },
    {
      "name": "troll_printable_geo_troll_printable_mat_0",
      "primitives": [
        {
          "attributes": {
            "COLOR_0": 14,
            "NORMAL": 13,
            "POSITION": 12
          },
          "indices": 15,
          "material": 0,
          "mode": 4
        }
      ]
    },
    {
      "name": "troll_printable_geo_troll_printable_mat_0",
      "primitives": [
        {
          "attributes": {
            "COLOR_0": 18,
            "NORMAL": 17,
            "POSITION": 16
          },
          "indices": 19,
          "material": 0,
          "mode": 4
        }
      ]
    },
    {
      "name": "troll_printable_geo_troll_printable_mat_0",
      "primitives": [
        {
          "attributes": {
            "COLOR_0": 22,
            "NORMAL": 21,
            "POSITION": 20
          },
          "indices": 23,
          "material": 0,
          "mode": 4
        }
      ]
    },
    {
      "name": "troll_printable_geo_troll_printable_mat_0",
      "primitives": [
        {
          "attributes": {
            "COLOR_0": 26,
            "NORMAL": 25,
            "POSITION": 24
          },
          "indices": 27,
          "material": 0,
          "mode": 4
        }
      ]
    },
    {
      "name": "troll_printable_geo_troll_printable_mat_0",
      "primitives": [
        {
          "attributes": {
            "COLOR_0": 30,
            "NORMAL": 29,
            "POSITION": 28
          },
          "indices": 31,
          "material": 0,
          "mode": 4
        }
      ]
    },
    {
      "name": "troll_printable_geo_troll_printable_mat_0",
      "primitives": [
        {
          "attributes": {
            "COLOR_0": 34,
            "NORMAL": 33,
            "POSITION": 32
          },
          "indices": 35,
          "material": 0,
          "mode": 4
        }
      ]
    }
  ],
  "nodes": [
    {
      "children": [
        1
      ],
      "matrix": [
        1.0,
        0.0,
        0.0,
        0.0,
        0.0,
        2.220446049250313e-16,
        -1.0,
        0.0,
        0.0,
        1.0,
        2.220446049250313e-16,
        0.0,
        0.0,
        0.0,
        0.0,
        1.0
      ],
      "name": "Sketchfab_model"
    },
    {
      "children": [
        2
      ],
      "matrix": [
        0.009999999776482582,
        0.0,
        0.0,
        0.0,
        0.0,
        0.0,
        0.009999999776482582,
        0.0,
        0.0,
        -0.009999999776482582,
        0.0,
        0.0,
        0.0,
        0.0,
        0.0,
        1.0
      ],
      "name": "bf11b6c34a88468aa714a5d9bda55f1c.fbx"
    },
    {
      "children": [
        3
      ],
      "name": "RootNode"
    },
    {
      "children": [
        4,
        5,
        6,
        7,
        8,
        9,
        10,
        11,
        12
      ],
      "name": "troll_printable_geo"
    },
    {
      "mesh": 0,
      "name": "troll_printable_geo_troll_printable_mat_0"
    },
    {
      "mesh": 1,
      "name": "troll_printable_geo_troll_printable_mat_0"
    },
    {
      "mesh": 2,
      "name": "troll_printable_geo_troll_printable_mat_0"
    },
    {
      "mesh": 3,
      "name": "troll_printable_geo_troll_printable_mat_0"
    },
    {
      "mesh": 4,
      "name": "troll_printable_geo_troll_printable_mat_0"
    },
    {
      "mesh": 5,
      "name": "troll_printable_geo_troll_printable_mat_0"
    },
    {
      "mesh": 6,
      "name": "troll_printable_geo_troll_printable_mat_0"
    },
    {
      "mesh": 7,
      "name": "troll_printable_geo_troll_printable_mat_0"
    },
    {
      "mesh": 8,
      "name": "troll_printable_geo_troll_printable_mat_0"
    }
  ],
  "scene": 0,
  "scenes": [
    {
      "name": "Sketchfab_Scene",
      "nodes": [
        0
      ]
    }
  ]
}
